# xmcd CD database file
#
# Track frame offsets:
#	150
#	15653
#	27433
#	42991
#	59506
#	80723
#	95043
#	113528
#	130088
#	145591
#	157371
#	172929
#	189444
#	210661
#	224981
#	243466
#
# Disc length: 3467 seconds
#
# Revision: 1
# Processed by: cddbd v1.5.2PL0 Copyright (c) Steve Scherf et al.
# Submitted via: CDex 1.51
#
DISCID=eb0d8910
DTITLE=Mixed - Counrty 301
DYEAR=1900
DGENRE=Blues
TTITLE0=Brooks and Dunn - Boot Scootin' Boogie
TTITLE1=Alan Jackson - Chattahoochee
TTITLE2=Confederate Railroad - Trashy Women
TTITLE3=Garth Brooks - Friends In Low Places
TTITLE4=John Michael Montgomery - I Swear
TTITLE5=Alan Jackson - Don't Rock The Jukebox
TTITLE6=Hank Williams Jr. - Country Boy Can Survive
TTITLE7=Billy Ray Cyrus - Achy Breaky Heart
TTITLE8=Brooks and Dunn - Boot Scootin' Boogie Vocal
TTITLE9=Alan Jackson - Chattahoochee Vocal
TTITLE10=Confederate Railroad - Trashy Women Vocal
TTITLE11=Garth Brooks - Friends In Low Places Vocal
TTITLE12=John Michael Montgomery - I Swear Vocal
TTITLE13=Alan Jackson - Don't Rock The Jukebox Vocal
TTITLE14=Hank Williams Jr. - Country Boy Can Survive Vocal
TTITLE15=Billy Ray Cyrus - Achy Breaky Heart Vocal
EXTD=
EXTT0=
EXTT1=
EXTT2=
EXTT3=
EXTT4=
EXTT5=
EXTT6=
EXTT7=
EXTT8=
EXTT9=
EXTT10=
EXTT11=
EXTT12=
EXTT13=
EXTT14=
EXTT15=
PLAYORDER=
